<svg viewBox="0 0 400 400" xmlns="http://www.w3.org/2000/svg"><g transform="matrix(2,0,0,2,0,0)"><path d="M145.5,52.521a.569.569,0,0,0-.878.113c-1.388,2.366-5.779,12.393-6.9,14.884a.494.494,0,0,0,.174.661c.46.253,2.085,1.357,3.03,2A.735.735,0,0,0,142,69.9c1.209-2.432,4.947-9.956,5.523-11.144.356-.738,1.611-3.578.976-4.138C148.437,54.572,146.035,52.939,145.5,52.521Z" fill="#EEDCB0"></path><path d="M106.887,47.2c-.807-.333-9.728,8.483-11.044,8.181a66.127,66.127,0,0,0-14.557-1.711c-.026.717,6.7,14.852,7.669,15.41s10.783,2.176,11.753,1.859c1.36-.443,6.22-5.37,7.572-6.658C108.771,63.8,107.693,47.53,106.887,47.2ZM99.681,69.587c-.7-2.109-1.372-4.209-1.977-6.35a27.858,27.858,0,0,1-1.495-6.258c-.025-.7.9-.7,1.119-.149.819,2.026,1.257,4.279,1.869,6.379a35.164,35.164,0,0,1,1.378,6.258C100.629,70.005,99.832,70.046,99.681,69.587Z" fill="#EEDCB0"></path><path d="M54.492,144.613c-2.7,2.757-.912,8.365.7,11.358,7.789,14.473,26.646,23.048,41.878,26.848a72.96,72.96,0,0,0,18.557,2.668,33.075,33.075,0,0,0,16.885-4.419c8.419-5.165,6.214-17.86.732-24.141a15.59,15.59,0,0,1-2.522-3.089c.545.707.773,2.989-.459,3.145-.6.077-4.762-6.14-4.972-6.445-.44-.641-11.787-5.244-12.475-4.753s-.518,3.616-.523,4.471c-.01,1.378,1.2,5.905,1.391,6.855.373,1.833-1.2,9.054-4.269,6.755-2.358-1.765-2.778-5.275-2.781-8.22-.006-3.025.522-2.352.228-9.986a1.184,1.184,0,0,1-.753-1.88c-1.945-.338-3.858-.968-5.822-1.344-.8-.153-8.609-1.053-8.665-1.316.181.865-.177,4.368-1.447,3.749-.32-.157-1.022-3.06-1.04-4.195-3.894.123-7.963-.519-11.907-.594-3.487-.066-6.977.208-10.444.208-1.593,0-1.659,1.429-2.084,2.783-.554,1.764-4.356,13.794-5.921,13.848-1.062.036-.921-1.109-.9-1.442a86.612,86.612,0,0,1,1.959-13.786A12.624,12.624,0,0,0,54.492,144.613Z" fill="#EEDCB0"></path><path d="M88.218,45.129c1.743,1.984,5.625,3.323,7.435.647.318-.468-.2-.973-.678-.88a20.638,20.638,0,0,1-2.87.732A4.746,4.746,0,0,1,88.8,44.55.409.409,0,0,0,88.218,45.129Z" fill="#333333"></path><path d="M91.38,42.793a1.905,1.905,0,0,0,.824.221,1.234,1.234,0,0,0,.971-.666c.722-1.342-.9-2.678-1.524-1.844a.67.67,0,0,0,.054.889c.483.392.105.8-.307.832C91.163,42.245,91.119,42.667,91.38,42.793Z" fill="#333333"></path><path d="M104.188,54.723c1.183.971,2.53.576,3.933.5,3.2-.184,2.84,2.9,2.63,5.154-.374,4,1.493,7.685,3.4,11.072.348.617,1.334.041.95-.555-1.992-3.106-4.11-6.367-3.536-10.173a14.356,14.356,0,0,0,.448-3.048,3.483,3.483,0,0,0-2.228-3.287c-1.762-.543-3.584.5-5.349-.085C104.2,54.221,103.991,54.561,104.188,54.723Z" fill="#333333"></path><path d="M103.655,57.125c1.334.53,4.079,1.457,5.288.284a.458.458,0,0,0-.092-.714c-.972-.553-1.94.147-4.991-.313A.386.386,0,0,0,103.655,57.125Z" fill="#333333"></path><path d="M103.732,58.984c1.334.591,3.89,1.5,5.091.238a.384.384,0,0,0-.077-.6,4.036,4.036,0,0,0-2.033-.1,12.393,12.393,0,0,1-2.735-.128C103.653,58.341,103.374,58.825,103.732,58.984Z" fill="#333333"></path><path d="M104.928,61.319c1.108.457,3.285,1.245,4.145,0a.36.36,0,0,0-.056-.436c-.818-.664-1.832-.105-3.979-.373C104.539,60.451,104.544,61.161,104.928,61.319Z" fill="#333333"></path><path d="M106.137,67.954a10.813,10.813,0,0,0,.847,5.4c.492,1.188,1.452,3.461,2.889,3.664a.463.463,0,0,0,.576-.438c-.013-1.715-2.144-1.65-3.447-8.747C106.9,67.306,106.19,67.5,106.137,67.954Z" fill="#333333"></path><path d="M89.393,57.473A13.269,13.269,0,0,1,86.5,58.815a13.735,13.735,0,0,0-2.965,1.06C79.931,61.9,80.282,67.1,80,68.753a99.821,99.821,0,0,1-4.529,16.382c-.123.331.4.546.566.238A50.964,50.964,0,0,0,81.54,69.18c.261-1.516-.362-5.438,1.984-7.4,1.8-1.5,5.583-1.354,6.378-3.907A.351.351,0,0,0,89.393,57.473Z" fill="#333333"></path><path d="M84.894,62.761c2.466.456,5.664-.261,6.486-3a.449.449,0,0,0-.653-.5C88.8,60.326,87.15,61.813,84.9,62.2A.291.291,0,0,0,84.894,62.761Z" fill="#333333"></path><path d="M86.259,65.168c1.685.2,3.915.194,4.962-1.393a.427.427,0,0,0-.366-.64c-1.59.2-2.958,1.19-4.6,1.283A.375.375,0,0,0,86.259,65.168Z" fill="#333333"></path><path d="M71.251,83.591a10.368,10.368,0,0,0,3.959,8.435c3.243,2.541,5.415,1.431,8.178-1.555,5.334-5.761,3.452-12.7,3.355-14.823-.09-1.971-.018-4.176-.815-6.02-.158-.368-.635-.123-.67.182-.39,3.25,2.208,13.933-1.739,18.208-2.832,3.067-4.437,4.913-7.526,2.535A11.442,11.442,0,0,1,71.884,83.5C71.807,83.138,71.269,83.245,71.251,83.591Z" fill="#333333"></path><path d="M123.628,69.1c-1.3-3.954-2.671-7.986-5.29-11.289a12.818,12.818,0,0,0-5.749-4.443,18.641,18.641,0,0,0,.981-3.3,9.1,9.1,0,0,0-6.263-9.733c1.688-5.093-1.348-11.53-7.171-11.638,1.237-3.016-.144-6.853-2.25-9.3-6.073-7.069-21.615-3.021-21.5,6.6-5.415.561-8.189,7.474-3.073,13.066A6.825,6.825,0,0,0,70.316,48.7c-3.805.814-7.008,3.956-6.37,8.173.52,3.433,4.78,6.151,7.875,4.5-2.736,5.408-.773,12.752-2.557,18.913a.645.645,0,0,0,.446.787,11.1,11.1,0,0,0,6-.246.45.45,0,0,0-.238-.868,15.1,15.1,0,0,1-4.838,0c1.429-7.238-.863-15.435,3.411-19.942a9.278,9.278,0,0,1,5.787-2.847c.871-.095.886-1.47,0-1.381a9.847,9.847,0,0,0-6.376,3.2c-1.814.844-7.666,3.241-7.907-2.878-.144-3.547,3.108-5.764,6.363-5.867a.883.883,0,0,0,.617-1.49,5.085,5.085,0,0,1,2.94-8.581c1-.169.662-1.59-.226-1.659-.5-.038-1.413-1.426-1.7-1.815-2.7-3.708-1.042-9.193,3.68-9.136a.809.809,0,0,0,.8-.8c-.922-8.988,12.4-11.989,18.032-6.827,3.286,3.01,4.309,9.166.1,10.365-1.885.535-3.938-.2-5.874.213-2.458.525-6.371,3.6-9.021,2.95A6.763,6.763,0,0,1,78.4,32.169c-.323-.335-.937.111-.66.51a4.4,4.4,0,0,0,2.934,1.954,7.234,7.234,0,0,0,.382,4.033,3.372,3.372,0,0,0,1.313,6.557c.5,2.128,1.982,4.827,4.294,4.853a.437.437,0,0,0,.305-.735c-.592-.733-1.454-1.206-2.051-1.951a5.79,5.79,0,0,1-1.237-2.948.739.739,0,0,0-.919-.7c-2.786.607-3.426-3.451-.586-3.912a.714.714,0,0,0,.422-1.037,6.761,6.761,0,0,1-.755-2.948,10.215,10.215,0,0,1,.066-1.139c2.42-.105,5.1-1.513,7.162-2.258,3.448-1.25,5.02.059,7.511-.607a5.318,5.318,0,0,0,1.909-.962c.517,2,1.152,3.986,1.57,6.016a.672.672,0,0,0,.471.472c2.07.537,2.167,3.589-.161,3.8a.7.7,0,0,0-.681.681,13.074,13.074,0,0,1-1.016,6.181c-1.138,2.266-3.189,2.891-5.5,3.342-.541.1-.566,1.034,0,1.119,3.778.566,7.951-3.071,7.889-10.1a3.206,3.206,0,0,0,.2-6.222,18.351,18.351,0,0,0-2.4-5.606,5.423,5.423,0,0,0,.962-1.22c4.661,1.589,7.876,6.147,5.779,11.084a.8.8,0,0,0,.472,1.155,7.593,7.593,0,0,1,5.682,8.16c-.1,1.043-.771,2.174-.656,3.206a8.391,8.391,0,0,0-1.706-.159.246.246,0,0,0-.064.482,15.382,15.382,0,0,1,8.3,5.825,35.631,35.631,0,0,1,4.4,9.777c-2.732,1-3.619.611-5.111,1.072a.5.5,0,0,0,0,.956,6.014,6.014,0,0,0,2.935.1,11.251,11.251,0,0,1-.128,2.983.405.405,0,0,0,.781.215,22.574,22.574,0,0,0,.617-3.5s1.4-.463,2-.712A.732.732,0,0,0,123.628,69.1Z" fill="#333333"></path><path d="M153.638,132.926a25.355,25.355,0,0,1-2.86-.609c-8.052-2.181-13.589-4.332-15.566-12.36a.356.356,0,0,0-.7.094c.048,8.133,10.6,11.869,10.705,12,1.219,1.468-2.906,1.234-3.3,1.217A17.56,17.56,0,0,1,131.2,129.49c.327-2.305-1.187-7.67-3.106-9.831-.182-.2-.487.016-.436.254.263,1.19,2.507,7.653,1.836,9.06-1.564,3.308-.358,8.437-.358,8.437s1.856.983,6.831,1.085c5.565.113,14.358-.673,15.3-1.067,1.172-.5,3.507-1.506,3.669-3A1.371,1.371,0,0,0,153.638,132.926Z" fill="#333333"></path><path d="M67.705,99.242c8.029,12.159,24.711,18.281,36.073,15.7a.468.468,0,0,0-.123-.915c-6.788.01-13.33-.6-19.639-3.3a42.732,42.732,0,0,1-15.766-11.9C68,98.524,67.49,98.916,67.705,99.242Z" fill="#333333"></path><path d="M103.133,127.039c-6.271,2.533-12.575,4.051-19.379,3.286-19.886-2.241-33.533-22.155-29.026-41.392a26.256,26.256,0,0,1,4.4-9.874,19.933,19.933,0,0,1,9.129-6.422c.463-.182.458-.983-.128-.942-10.164.7-19.141,16.664-15.067,33.823a35.352,35.352,0,0,0,16.411,22.026c-.031.061-1.344,3.436-1.734,4.519C58.7,157.3,59.2,157.009,58.712,156.673c-.279-.195.141-1.933.174-2.21,2.084-17.041,4.635-23.583,5.421-29.534.043-.322-.5-.466-.625-.169-2.761,6.476-5.34,22.116-6.217,29.214-.131,1.068-.54,2.522-.016,3.552a1.492,1.492,0,0,0,2.151.637c.972-.605.376.119,8.765-23.145.592-1.641,2.172-6.683,2.172-6.683a72.252,72.252,0,0,0,9.745,3.395,38.181,38.181,0,0,0,7.815.746c.005,2.76.049,5.492.251,8.25.113,1.536-.056,6.086,2.591,5.533,1.053-.22,1.2-1.278,1.258-2.176.087-1.352.333-10.87,0-11.871a29.22,29.22,0,0,0,11.52-3.785C104.426,128,103.96,126.706,103.133,127.039Zm-12.4,17.192c-.054.84-.588.175-.69-.265-.2-.878-.331-3.322-1.364-11.5q1.191-.027,2.379-.136C90.786,133.488,91.036,139.63,90.735,144.231Z" fill="#333333"></path><path d="M130.979,153.516c-1.356-3.6-9.749-22.4-11.557-25.757.956-3.172,1.361-3.856,2.608-8.568.308-1.157,1-2.891.628-4.133a19.735,19.735,0,0,0-3.608-6.381c-3.045-3.923-3.783-6.683-4.735-6.767-.917-.08-7.894,5.275-8.611,6.486-.63,1.062-.5,33.615-.745,36.757-.039.5,1.152,1,1.365,1.137a17.658,17.658,0,0,0,.056,5.08,14.851,14.851,0,0,0,.23,11.149,17.212,17.212,0,0,0,2.538,4.181c.8.966,2.143,2.651,3.511,2.794,1.282.133,1.917-1.04,2.273-2.066,2.484-7.15-2.251-15.564-2.251-15.564s.354-4.309.349-5.141a7.652,7.652,0,0,0,1.554-.723c.429-.265,1.4-5.265,2.828-10.854a107.036,107.036,0,0,0,10.541,21.578c.717,1.081,2.253,2.422,3.421,1.035C132.383,156.56,131.438,154.732,130.979,153.516Zm-18.574,5.131a11.7,11.7,0,0,1-.592,2.051c-.63,1.6-.865,1.162-1.751.274a11.2,11.2,0,0,1-2.389-3.582c-.487-1.173-.335-4.689-.3-4.865a17.479,17.479,0,0,0,.3-5.626,8.609,8.609,0,0,0,4.106.154,17.327,17.327,0,0,0,.038,6.02A15.791,15.791,0,0,1,112.405,158.647Zm17.845-2.217c-.492.609-1.57-1.455-1.785-1.8-2.866-4.579-8.336-15.37-10.823-20.381.487-1.894.883-3.363,1.216-4.548.607,1.512,1.64,3.364,2.094,4.336C124.785,142.267,130.5,156.123,130.25,156.43Z" fill="#333333"></path><path d="M162.918,28.974c-.441-.471-1.363-.336-1.944-.361-.914-.041-11.443.013-13.22.13-1.117.075-4.164.3-4.146.771.015.387.584,4.169.822,5.418,6.123-.151,17.983-.2,19.007-.7C164.49,33.721,162.977,29.037,162.918,28.974Z" fill="#EEDCB0"></path><path d="M190.211,121.475c-.75-1.749-.9-1.736-2.678-1.874a62.344,62.344,0,0,0-8.468.194c-1.56.11-13.735.628-13.753.484a51.822,51.822,0,0,0,.747,5.162c.057.252.477,2.74.715,2.74,5.387-.046,18.748-.814,20.047-.924,1.065-.09,2.1.013,2.955-.707C191.125,125.421,190.89,123.058,190.211,121.475Z" fill="#EEDCB0"></path><path d="M194.443,131.528c-2.574-4.746-13.469-3.183-19.352-2.781-5.165.354-10.307.73-15.423,1.475-.266.039-.2.464.062.461.684,0,1.367-.018,2.051-.031a8.937,8.937,0,0,1,2.811,2.568,2.111,2.111,0,0,1,.2,2.5,8.321,8.321,0,0,1-1.126,1.7q-2.622.2-5.24.465c-.819.084-.826,1.375,0,1.291.912-.095,1.824-.18,2.735-.262a15.293,15.293,0,0,1,.509,6.671c-.714.043-1.426.089-2.14.138a.27.27,0,0,0,0,.54c5.459.051,28.471,0,30.3-.607,3.245-1.071,4.113-5.823.207-8.116a6.329,6.329,0,0,0,4.044-1.458A3.924,3.924,0,0,0,194.443,131.528Zm-3.369,8.8a3.124,3.124,0,0,1-.172,3c-1.473,2.355-2.959.733-28.322,2.2.591-.7.922-4.019-.679-6.686,5.371-.457,17.917-1.135,23.383-1.071C187.6,137.827,190.043,138.245,191.074,140.332Zm1.823-5.439c-1.82,2.191-10.383,1.215-27.731,2.419A5.784,5.784,0,0,0,166.2,135.6a3.072,3.072,0,0,0-.739-3.36,11.688,11.688,0,0,0-1.537-1.651c12.093-.4,21.593-1.884,26.548-.108C192.027,131.042,194.423,133.059,192.9,134.893Z" fill="#333333"></path><path d="M190.877,117.673a20.759,20.759,0,0,1-.938-5.431.649.649,0,0,0-.64-.641c-9.891.369-19.7,1.3-29.5,2.6-.284.039-.3.477,0,.461.474-.025.948-.056,1.419-.084-.023,1.576.028,2.086.041,4.517a7.389,7.389,0,0,0-1.514.107c-.291.08-.171.3-.166.379.01.19,29.316-.947,30.54-.911A.8.8,0,0,0,190.877,117.673Z" fill="#EEDCB0"></path><path d="M48.421,139.686c-.033-.336-8.913-.883-10.67-1.006-3.452-.241-7.072-.7-10.545-.7-.3,0-1.411,4.287-2.486,6.305a22.83,22.83,0,0,1-3.131,4.448c-.709,1.012-.867.7-.841,1.643a13.013,13.013,0,0,1-.6,5.49,21.344,21.344,0,0,1-2.728,5.941c-.018,0-.284.519.049.573,2.66.43,18.521,1.161,21.46,1.07,1.155-.035,3.854-4.424,4.443-6.614.558-2.078.9-5-.113-7.031C45.254,147.784,48.592,141.4,48.421,139.686Zm-22.638,5.221a30.056,30.056,0,0,0,2-5.971c3.131.747,17.985,1.772,19.455,1.7a32.692,32.692,0,0,1-5.165,9.045c-1.758-.143-3.862.362-9.63.252-3.294-.067-6.591-.546-9.878-.647A21.429,21.429,0,0,0,25.783,144.907Zm16.792,8.115c-.094,5.4-2.639,7.849-3.429,9.2-.017,0-17.488-.674-20.768-.484a13.859,13.859,0,0,0,3.738-9.106,8.01,8.01,0,0,0-.061-2.253c5.549,1.6,17.753,1.379,20.37.542A19.689,19.689,0,0,1,42.575,153.022Z" fill="#333333"></path><path d="M29.693,146.707c1.61-2.143,2.955-3.36,3.175-4.6.074-.412-.361-.884-.779-.6-1.109.756-1.763,2.645-2.983,4.857A.34.34,0,0,0,29.693,146.707Z" fill="#333333"></path><path d="M33.4,146.277c.921-1.465,2.22-2.952,2.43-4.7.038-.325-.382-.4-.581-.241-1.311,1.086-1.859,3.009-2.569,4.525A.417.417,0,0,0,33.4,146.277Z" fill="#333333"></path><path d="M36.466,146.1c.51-.731,1.293-1.6,1.149-2.553-.046-.3-.422-.374-.645-.263-.822.407-1.093,1.654-1.383,2.445C35.393,146.275,36.173,146.52,36.466,146.1Z" fill="#333333"></path><path d="M164.656,48.972c-.612-.358-4.307.128-4.829.553-.072.059,1.1,5.193,1.221,6.665.118,1.491,1.608,13.126,1.962,13.369s4.435.243,4.934-.4S164.823,49.069,164.656,48.972Z" fill="#EEDCB0"></path><path d="M134.787,35.165c.164-.425-2.292-18.6-2.753-18.858a1.572,1.572,0,0,0-.74-.144,42.774,42.774,0,0,0-5.415.046.771.771,0,0,0-.3.4c-.037,1.848,1.385,16.5,1.958,18.513.213.743,3.8.487,5.869.282C134.339,35.317,134.669,35.393,134.787,35.165Z" fill="#EEDCB0"></path><path d="M44.078,32.5c-.454-.981-8.386-18.021-8.463-17.993-1.672.609-2.944,1.045-4.609,1.675C31.36,18.3,38.2,34.325,38.427,35.5c.084.43,5.034-1.941,5.426-2.126A.654.654,0,0,0,44.078,32.5Z" fill="#EEDCB0"></path><path d="M67.518,21.264c-3.308-.119-6.689.271-9.992.461-3.329.192-6.667.335-9.991.6a.483.483,0,0,0-.458.6,31.664,31.664,0,0,1,.717,5.79c-.891,0-1.782-.008-2.671-.021a.573.573,0,0,0,0,1.145c.484.008.968.01,1.449.015a5.414,5.414,0,0,1-.4,5.472c-.067.1-7.689.2-14.533.532,1.571-.6,3.175-1.1,4.709-1.807a.54.54,0,0,0,.187-.728c-.608-.991-3.058-7.08-3.816-9.028-.747-1.923-2.535-7.177-2.711-7.869-.057-.22-.372-1.925-.889-1.779-2.08.59-5,1.017-6.98,2.116q-.289-.732-.553-1.471a.687.687,0,0,0-1-.407,29.816,29.816,0,0,1-5.779,2.8.312.312,0,0,0,.082.61,10.292,10.292,0,0,0,5.791-1.844c1.547,2.927,2.8,6.038,4.169,9.047,3.9,8.592,3.665,8.4,4.579,9.64A.31.31,0,0,0,30,34.9c-.293-1.37-.534-1.668-4.028-9.521-1.11-2.5-2.326-4.981-3.382-7.516,2-.112,4.191-1.133,6.068-1.776.378,1.8,5.755,15.561,6.67,17.26-1.384.626-3.961,1.82-5.519,2.609-3.381.219-1.874.355-10.971.716a.348.348,0,0,0,0,.7c8.534-.081,39.1-.579,40.119-.6a5.6,5.6,0,0,0,2.878-.391.636.636,0,0,0,0-1.089,4.843,4.843,0,0,0-2.622-.276c-4.577.116-8.447.219-11.73.31a5.231,5.231,0,0,0-.248-5.462c2.663.02,14.672-.061,15.535-.072a3.779,3.779,0,0,0,1.928-.279.285.285,0,0,0,0-.486c-.829-.524-1.5-.308-16.311-.308a30.622,30.622,0,0,0-.3-5.454c3.149-.064,6.3-.223,9.446-.343,3.305-.125,6.711-.061,9.991-.491A.582.582,0,0,0,67.518,21.264Z" fill="#333333"></path><path d="M43.182,49.8c-.146-.6-5.943.3-6.025.4-.373.442.061,16.71.151,17.932.031.389-.044,1.214.325,1.444a43.78,43.78,0,0,0,5.109-.059c.491-.209.5-3.164.5-3.884C43.241,64.241,43.484,51.044,43.182,49.8Z" fill="#EEDCB0"></path><path d="M28.635,51.269c-1.291-.443-3.418-.837-4.714-1.275a.5.5,0,0,0-.609.345c-.474,2.73-4.622,17.625-4.645,18.239-.028.723,4.909,2.059,5.318,1.849.681-.348,3.99-15.932,5.037-18.48A.558.558,0,0,0,28.635,51.269Z" fill="#EEDCB0"></path><path d="M38.85,127.938q-.84-.039-1.684-.06a5.28,5.28,0,0,1-1.82-1.973c-.7-1.524.067-3.22.721-4.636l.923-.04c.815-.036.817-1.31,0-1.27l-2.1.1c-.425-2.555-.975-5.105-1.355-7.662a.508.508,0,0,0-.487-.371l-.289.021c-.8-.907-3.787-2.231-1.639-6.123.435-.029.868-.054,1.3-.082.658-.041.664-1.073,0-1.029-4.255.266-16.848,1.049-18.892,1.185-1.971.131-6.357.036-6.65.2-1.5.814-2.158,3.431-1.772,5.008a3.906,3.906,0,0,0,2.4,2.608,4.76,4.76,0,0,0,1.164.057c-.023.072,1.913,2.554,1.9,4.21a7.021,7.021,0,0,1-1.017,3.095l-2.521.114a.681.681,0,0,0-.676.675c.217,2.234-.341,7.57,1.48,7.675,5.128.3,10.375.115,15.506.059s10.379.161,15.508-.2A.779.779,0,0,0,38.85,127.938ZM8.222,112.849c-3.164-2.035-1.1-3.993-.735-5.626,1.653.165.288.167,22.477-1.224a4.808,4.808,0,0,0,.987,6.177c-7.216.5-14.432.787-21.658,1.116A3.409,3.409,0,0,1,8.222,112.849ZM9.608,113.9c7.681.2,15.348-.282,23.012-.832.326,2.342.529,4.715.825,7.064-7.476.348-14.952.65-22.428.979a6.9,6.9,0,0,0,.79-3.219A4.852,4.852,0,0,0,9.608,113.9Zm13.734,14.2c-5.077.064-10.283-.128-15.337.4a29.991,29.991,0,0,0-.243-5.9c9.07-.417,18.138-.889,27.21-1.287-1.636,1.608-1.5,4.751-.05,6.534C31.064,127.85,27.178,128.052,23.342,128.1Z" fill="#333333"></path><path d="M34.112,96.911c-.237.011-19.212.875-20.085,1.066-1.308.284-.561,2.337-.54,3.257.038,1.723.4,3.764,2.514,3.692,6-.2,12.264-.582,17.074-.988,1.05-.09.9-.367.387-1.053-.471-.624-.6-4.133-.315-5.072l.968-.046C34.66,97.741,34.663,96.886,34.112,96.911Z" fill="#EEDCB0"></path><path d="M29.15,95.311a2.634,2.634,0,0,0-1.027-.123,2.9,2.9,0,0,1-.258-2.025c.2-1.4.542-1.721.542-1.721s.822.01,1.086-.335a.417.417,0,0,0-.3-.682c-.761-.054-18.909.129-20.014.2-.714.041-.737.871-.807,1.472a9.486,9.486,0,0,0,.208,3.132c.331,1.455.853,1.639,2.215,1.611,2.281-.059,16.8-.556,17.6-.525C29.478,96.343,29.38,95.457,29.15,95.311Z" fill="#EEDCB0"></path><path d="M54.91,69.708c-3.181-.234-5.45-.178-18.878.563.192-2.613-.336-11.12-.353-12.465-.017-1.434.187-4.916-.5-5.008a27.768,27.768,0,0,0-5.38.164.656.656,0,0,0-.651.65c1.264,12.232.093,14.915.454,17-6.305.3-12.664.533-18.892,1.455-.313.046-.216.5.066.519,6.41.356,11.517.054,31.347-.778a106.161,106.161,0,0,0,12.941-.924C55.772,70.768,55.542,69.754,54.91,69.708Zm-24.19.851c.387-1.686-.1-14.62-.226-16.34a30.6,30.6,0,0,0,4.177-.377c-.16,1.327-.017,13.247.56,16.473C32.836,70.448,32.3,70.48,30.72,70.559Z" fill="#333333"></path><path d="M48.508,62.551c-.031-2.341.031-4.678.043-7.016,0-.338-.148-.937-2.573-.64a9.99,9.99,0,0,0-1.692.13,59.494,59.494,0,0,0-.039,9.487c.079,1.255-.041,2.7.085,3.949a.864.864,0,0,0,.571.745,7.957,7.957,0,0,0,3.569-.1C48.587,69,48.523,63.711,48.508,62.551Z" fill="#EEDCB0"></path><path d="M173.7,35.009c-.81-.428-6.885-.168-30.619.645-.629-6.257-2.154-14.976-2.382-16.771-.1-.781-.171-1.744-1.157-1.872-1.022-.133-4.991-.351-5.7-.026-.725.333-.351,1.4-.251,2.013.154.96,2.151,13.151,2.4,16.213.041.5.845.446.766-.03-.52-3.1-.648-6.263-1.1-9.38-.218-1.485-1.065-7.9-1.065-7.9a16.577,16.577,0,0,1,5.267.169c-.058,2.154,1.671,15.006,2.092,17.622-5.452.187-11.207.386-16.16.561-.322-2.937-.348-5.9-.655-8.847-.156-1.493-.933-8.13-1.122-8.22a6.872,6.872,0,0,0-4.92-.168c-.135-.784-.294-1.561-.485-2.326a8.621,8.621,0,0,0-3.142-.12c-.648.105-2.446.105-2.284,1.365.272,2.112,1.685,16.385,2.141,18.694l-1,.039a.35.35,0,0,0,0,.7c8.534-.081,46.587-.579,47.611-.6,1-.02,10.888-.148,11.769-.671A.635.635,0,0,0,173.7,35.009Zm-57.361,1.585a45.939,45.939,0,0,0-.493-4.734c-.2-1.878-1.532-13.863-1.6-14.063a10.908,10.908,0,0,1,3.946-.113c.016,3.078.512,5.859.819,8.911.328,3.25.759,6.614,1.148,9.859C118.712,36.506,117.424,36.553,116.339,36.594Zm4.867-.178c-.39-3.489-1.635-14.423-2.012-16.79.88.17,1.348-.1,3.643.148a55.433,55.433,0,0,1,1.2,7.856c.322,2.874.865,5.76,1.033,8.649Z" fill="#333333"></path><path d="M188.879,69.71c-2.825-.11-4.035-.1-9.525.013-1.237-5.023-2.6-10.706-3.4-15.791a.509.509,0,0,0-.491-.374c-1.59.036-3.18.036-4.77.077-.305.008-.669.282-.625.625q.138,1.056.292,2.107a14.685,14.685,0,0,0-3.327.364c-.23.038-.162.594-.161.642.039,2.409.617,3.182,2.323,12.569-1.939.04-4.117.084-6.573.132-.826-4.155-2.553-17.609-3.025-17.8a6.419,6.419,0,0,0-2.749-.082,7.909,7.909,0,0,0-2.157.282q-.091-.526-.194-1.052a.555.555,0,0,0-.535-.408c-1.5.077-3.583-.2-4.948.474-.124.06-.13-1.106.241,18.818a211.488,211.488,0,0,0-21.624,1.2c-.33.038,0,.53,0,.53,7.8.211,42.566-.241,45.407-.29a142.714,142.714,0,0,0,15.842-.827A.6.6,0,0,0,188.879,69.71Zm-38.322.571c-.1-2.268-.787-17.12-.885-18.175a15.978,15.978,0,0,0,3.818.026c.751,5.23,1.97,12.676,2.023,18.074Q153.005,70.247,150.557,70.281Zm6.248-.1c-.537-4.993-1.183-12.114-1.984-16.97a9.469,9.469,0,0,0,2.409.056,10.767,10.767,0,0,0,1.762-.1c-.1,1.36,1.788,15.591,2.032,16.931C160.225,70.121,157.611,70.171,156.805,70.185Zm13.87-.274c-1.984-8.535-1.983-10.236-2.821-12.476A6.663,6.663,0,0,0,170.5,57.3c.578,3.817,1.905,7.738,2.67,11.522.08.4.656.22.6-.164-.67-4.555-1.81-9.246-2.378-13.814,1.219-.074,2.437-.164,3.656-.241.921,4.905,1.937,10.28,3.126,15.149C176.219,69.792,173.784,69.846,170.675,69.911Z" fill="#333333"></path><path d="M181.59,98.893c-.921-.425-.517-.235-12.916.185a122.586,122.586,0,0,0-13.239.686c-.337.049-.219.532.077.561.592.053,1.188.092,1.782.12.049.54.177,1.081.249,1.618a9.935,9.935,0,0,0,.305,1.872.44.44,0,0,0,.84,0,5.331,5.331,0,0,0-.259-3.447c3.97.105,6.512-.177,17.079-.338,1.1-.017,3.849-.33,5.815-.245a2.759,2.759,0,0,1,.666,2.978c-.322.663-.9.9-1.418,1.263-3.926.106-21.982.936-23.151,1.024a.16.16,0,0,0,0,.32c.243.007.486.012.73.02a8.682,8.682,0,0,1,1.721,2.942c.179.858-.349,2.453-1.322,2.694a2.984,2.984,0,0,0-.85.181c-.253.152-.169.415.041.584.3.241,23.44-.842,24.052-1.142a1.355,1.355,0,0,0,.683-1.26,19.19,19.19,0,0,0-.661-4.578,3.746,3.746,0,0,0,1.622-2.038C183.856,101.341,181.774,98.978,181.59,98.893Zm-21.471,12.266a2.868,2.868,0,0,0,.848-1.847c.1-1.641-.9-2.788-2.034-3.782,3.449.093,6.9.095,10.348.085,3.882-.013,7.784.182,11.661.067a17.808,17.808,0,0,0,.452,3.63C180.543,109.307,164.12,110.644,160.119,111.159Z" fill="#333333"></path><path d="M130.659,91.214c-.544-3.106-2.519-10.911-5.2-13.184-2.115-1.8-6.224-1.608-8.552-.405C93.876,89.534,87.4,87.4,85.012,90.917c-1.314,1.933-2.223,2.568-4.766,4.064-1.848,1.088-1.034,4.412-.706,6.183a15.047,15.047,0,0,0,2.76,6.466c5.455,7.108,15.056,4.225,22.328-.945a93.949,93.949,0,0,0,8.4-6.719,11.455,11.455,0,0,0,1.787-2.77c.579-1.58.8-3.421,1.534-4.917a.647.647,0,0,1,1.17.154,6.9,6.9,0,0,1-.525,4.151c-.466,1.172-1.38,2.619-1.127,3.951a29.053,29.053,0,0,0,5.567,8.3c1.892,1.882,4.338,6.642,5.482,9.454.484,1.193,6.847.289,8.243.143C140.446,117.872,131.853,98.026,130.659,91.214Z" fill="#333333"></path><path d="M94.65,37.478a4.583,4.583,0,0,0,.11.934.784.784,0,0,0,1.511,0c.028-.179.056-.8.051-.934a.836.836,0,0,0-1.672,0Z" fill="#333333"></path><path d="M86.891,38.768a6.618,6.618,0,0,0,.29.866.705.705,0,0,0,1.359-.377,7.375,7.375,0,0,0-.4-1.016.686.686,0,0,0-1.252.527Z" fill="#333333"></path><path d="M85.457,37.534A3.472,3.472,0,0,1,87.063,36.1a.627.627,0,0,0,.315-.548.634.634,0,0,0-.8-.612A2.821,2.821,0,0,0,84.6,37.173C84.5,37.665,85.2,38.038,85.457,37.534Z" fill="#333333"></path><path d="M94.427,34.63c1.048.471,1.915,1.36,2.632,1.3a.429.429,0,0,0,.42-.42c0-1.319-1.866-1.667-2.847-1.636C94.261,33.888,94.038,34.455,94.427,34.63Z" fill="#333333"></path></g></svg>
