<svg viewBox="0 0 400 400" xmlns="http://www.w3.org/2000/svg"><g transform="matrix(2,0,0,2,0,0)"><path d="M93.758,96.575c-.852,3.409-.85-6.321-6.8-15.664-.489-.768-.292-.95.582-.465a10.675,10.675,0,0,1,3.4,4.026C93.345,88.857,94.27,94.526,93.758,96.575Z" fill="#333333"></path><path d="M96.5,90.919c-.575,1.841-1.59-2.765-3.258-5.912-.712-1.342-2.043-3.276-.628-2.723a5.519,5.519,0,0,1,2.211,1.978C96.453,86.559,96.9,89.664,96.5,90.919Z" fill="#333333"></path><path d="M44.65,17.047c5.638-3.506-9.4-4.888-42.127.256,0,0,26.948,12.7,43.639,24.717A2.368,2.368,0,0,0,49.747,41l4.212-10.264,4.585.675a.971.971,0,0,0,1-1.4l-3.026-5.935C56.519,24.1,42.022,18.68,44.65,17.047Z" fill="#EEDCB0"></path><path d="M60.988,15.487c-1.357-4.094-6.562-4.174-10.124-4.7A91.642,91.642,0,0,0,9.226,14.812c-1.323.436-6.7,2.457-6.7,2.77-.2.14.372.063,20.924,5.679,36.426,9.953,28.158,8.05,34.376,9.007,1.49.229,3.514-.652,2.676-2.537-.954-1.862-1.936-3.721-2.886-5.609-.117-.232,1.583-2.4,1.792-2.677C60.505,19.584,61.767,17.838,60.988,15.487ZM39.622,25.914c-6.965-1.847-27.794-7.254-34.888-8.169a173.967,173.967,0,0,1,22.251,1.21,176.857,176.857,0,0,1,28.836,5.958,54.161,54.161,0,0,1,2.816,5.516,13.135,13.135,0,0,1-3.421-.419C49.955,29.087,44.79,27.285,39.622,25.914ZM59.1,18.932c-.9,1.532-1.769,2.909-2.584,4.212-15.3-4.628-36.924-7.65-52.3-5.841a137.509,137.509,0,0,1,22.739-4.818,98.161,98.161,0,0,1,23.228.093c2.911.378,8.27.121,9.263,3.7A3.444,3.444,0,0,1,59.1,18.932Z" fill="#333333"></path><path d="M64.759,28.591c-2.834-1.178-2.48-1.369.488-.605,13.8,3.548,22.681,13.195,29.442,25.415.883,1.6,1.442,3.633,3.049,4.678,1.256.816,4.143,1.35,4.143-.908,0-.628-.3-1.755-1.048-1.908-.464-.095-1.84.936-.837-.21a1.224,1.224,0,0,1,1.606-.232,3.144,3.144,0,0,1,1.349,2.49c.213,2.7-3.027,3.285-4.957,2.514C93.979,58.22,94.135,53.71,86.38,44.091,80.027,36.211,73.462,32.208,64.759,28.591Z" fill="#333333"></path><path d="M64.619,33.874c-2.746-1.966-2.356-2.016.628-.442a49.5,49.5,0,0,1,10.776,8.076C85.164,50.163,87.225,54.8,90.29,61.2a20.412,20.412,0,0,1,2,6.028,10.072,10.072,0,0,1-.745,6.074,4.572,4.572,0,0,1-5.19,2.444c-2.281-.673-3.939-4.123-2.607-6.214.788-1.236,3.352-1.676,3.724.163a2.575,2.575,0,0,0-1.21-.652c-1.723-.251-2.328,1.536-1.816,2.886a3.637,3.637,0,0,0,2.63,2.584c3.838.508,3.9-5.328,3.375-7.681-.689-3.092-2.352-5.934-3.77-8.751C82.062,48.9,73.042,39.905,64.619,33.874Z" fill="#333333"></path><path d="M67.063,84.844c2.168,1.151-1.027.519-2.817.419-.7-.039-2.4-.186-2.467.838-.218,3.2,9.232,5.381,11.8,6.424,2.634,1.07-2.2.963-6.7-.419-2.871-.882-6.589-2.494-6.865-5.493-.17-1.835,1.206-3.314,4.515-2.63A9.668,9.668,0,0,1,67.063,84.844Z" fill="#333333"></path><path d="M55.193,78.258c1.59,1.053-4.008,1.12-5.935,1.233-1.678.1-2.767.508-2.4-.395a3.336,3.336,0,0,1,2.327-1.35C51.631,77.231,54.337,77.691,55.193,78.258Z" fill="#333333"></path><path d="M54.983,84.356c1.6.742-2.828,1.565-5.562,2.327-.93.259-1.557.546-1.978.652-.989.247-.6-1.372,1.536-2.351C51.268,83.933,54.038,83.918,54.983,84.356Z" fill="#333333"></path><path d="M56.775,89.336c1.213.925-2.809,1.41-4.468,1.7-.72.126-1.21.256-1.56.28-.349,0-.548-.183-.4-.606A2.914,2.914,0,0,1,52,89.313C53.892,88.551,56.1,88.822,56.775,89.336Z" fill="#333333"></path><path d="M136.652,118.778a5.211,5.211,0,0,1,1.211.466c.429.513-3,.167-3.957.162a38.431,38.431,0,0,0-19.969,5.866,73.871,73.871,0,0,0-7.844,5.585c-1.453,1.151-1.549.852-.4-.628,2.755-3.534,8.236-7.737,14.244-10.078A26.858,26.858,0,0,1,136.652,118.778Z" fill="#333333"></path><path d="M150.407,96.109c-.721.3-.791-.7-.162-2.258s1.694-3.058,2.42-3.374.791.7.163,2.257S151.129,95.806,150.407,96.109Z" fill="#333333"></path><path d="M159.6,92.827a3.6,3.6,0,0,0-1.7.28,13.961,13.961,0,0,0-.815-1.4c-.721-.852-1.168.492-.954,1.653.419,2.269,1.485,2.355,3.095.931C159.484,93.991,160.415,93.038,159.6,92.827Z" fill="#333333"></path><path d="M148.662,89.173c-.739.247-.491.068-.978-.582-1.624-1.919-1.7.783-.954,1.955a1.7,1.7,0,0,0,2.374.3C149.814,90.391,151.453,88.243,148.662,89.173Z" fill="#333333"></path><path d="M146.963,102.533c-.447-.873,1.667-.229,3.538-1.164a8.336,8.336,0,0,1,1-.465c2.149-.742,1.015,1.6-.744,2.373C149.119,104,147.413,103.411,146.963,102.533Z" fill="#333333"></path><path d="M113.006,156.087c-7.681,6.842-15.827,13.918-25.858,16.175,5-15.407,4.934-31.932,4.818-48.131A252.933,252.933,0,0,1,98.6,151.246c.186-11.8-4.614-23.041-6.889-34.632C89.719,106.467,88.856,91.8,82.7,85.1a22.864,22.864,0,0,0-3.84-2.862,61.927,61.927,0,0,0-14.9-7.518c-4.42-1.517-9.333-2.514-13.708-.815,6.61-1.256,13.264,1.47,19.294,4.446,12.118,5.98,15.6,10.42,18.037,23.111,3.455,18.012,3.1,36.562,1.141,54.811-.466,4.328-2.229,10.345-4.981,7.494-6.481-6.714-9.565-27.615-10.8-36.866Q71.4,115.312,70.274,103.65c-.395,21.086,3.966,41.938,9.171,62.375.7,2.746,1.633,5.787,4.142,7.168,2.565,1.412,5.751.47,8.449-.721a54.971,54.971,0,0,0,21.086-16.479C113.076,156.04,113.029,156.063,113.006,156.087Z" fill="#333333"></path><path d="M184.434,111.8c-12.126-.669-9.849-13.267-8.448-21.994,1.345-8.38-8.17-19.484-15.966-18.666-10.614,1.113-16.618,7.075-18.736,14.127,0,0-1.516,4.279.512,7.029.5.679-1.243,1.887-.908,7.7.266,4.611,1.975,8.27,6.564,8.937a49.448,49.448,0,0,0-2.374,4.818c-2.154,4.257-2.849,4.538-2.607,5.679a20.151,20.151,0,0,0,1.094,3.863c1.189,2.746,3.86,4.648,6.866,3.445a8.872,8.872,0,0,0,4.515-3.584c.956-1.838.51-4.027.233-6.075-.305-2.257-.4-4.585-1.327-6.656-.733,4.36.918,9.5-.512,11.986-.875,1.522-3.756,3.19-5.493,2.746-2.394-.611-3.926-5.5-3.607-6.1a69.86,69.86,0,0,0,4.375-10.008,7.547,7.547,0,0,0,2.77-.418c.986-.376,1.35-.862,1.327-.955-.024-.139-.421.037-1.35.21-2.729.507-5.981-.4-7.471-2.886-2.344-3.918-1.033-11.462.814-15.64a23.267,23.267,0,0,1,2.048-3.631c3.771-.466,13.736-2.868,14.477-2.235.7.6-.8,4.821.745,7.983,2.782,5.708,2.241,9.739-1.885,12.662-5.9,4.18-5.319,13.046-.419,18.549a30.682,30.682,0,0,0,2.979,2.886c0,1.217-.985,2.235-8.8,16.8-.687,1.281-1.4,1.551-2.793.419q-2.02-1.645-4.05-3.282a45.368,45.368,0,0,0,.094-10.357c-.606,3.422-1.118,6.843-1.536,10.288-1.257.535-2.511,1.077-3.771,1.6-1.728.726-2.616.492-3.165-1.559a139.452,139.452,0,0,0-5.772-17.013,150.848,150.848,0,0,0,4.026,17.036,5.85,5.85,0,0,0,1.4,2.84,3.9,3.9,0,0,0,3.514.745,12.815,12.815,0,0,0,3.4-1.56c-9.138,44.613-9.073,43.65-9.17,46.339a27.1,27.1,0,0,0,1.885-5.237,339.628,339.628,0,0,0,8.821-41.1c1.928,1.2,3.471,4.209,6.075,3.864,1.745-.232,2.77-2,3.537-3.584,7.113-14.668,7.119-14.4,7.262-15.408,2.281,2,2.958,3.05.349,7.937-3.767,7.054-3.4,17.688,6.168,18.037,5.1.186,9.17-.093,13.01-2-.96,16.082-5.55,42.907-2.909,32.491a202.106,202.106,0,0,0,4.841-33.608,31.734,31.734,0,0,0,8.169-8.565C200.842,129.826,198.492,112.571,184.434,111.8Zm4.981,28.58c-1,.381-.094-1.14.093-1.419a15.23,15.23,0,0,0,1.769-3.352c2.2-6.121.216-14.941-5.888-17.292-.489-.188-2.426-.418-2.561-.978-.072-.3.3-.514.629-.582,6.807-1.424,13.754,7.106,10.8,17.386C193.49,136.8,192.015,139.385,189.415,140.376Z" fill="#333333"></path><path d="M163.953,134.279c2.65-4.945,1.88-5.911-.349-7.867-.143,1-.149.74-7.262,15.408-.767,1.582-1.792,3.352-3.537,3.584-2.6.345-4.147-2.664-6.075-3.864a341.747,341.747,0,0,1-8.667,40.555,33.234,33.234,0,0,1-1.8,5.3,21.641,21.641,0,0,1,11.4-4.262,23.131,23.131,0,0,1,8.518.7A248.746,248.746,0,0,0,166.47,151.6C160.44,148.932,160.812,140.138,163.953,134.279Z" fill="#EEDCB0"></path><path d="M145.115,141.586A12.487,12.487,0,0,1,141.8,143.1a3.9,3.9,0,0,1-3.514-.745,5.854,5.854,0,0,1-1.4-2.84c-4.456-16.214-3.361-14.425-3.98-16.594-4.841,8.448-11.4,25.323-14.453,41.358-1.232,6.471-.279,16.5-.675,21.18.047.046.116.069.163.116,3.421,2.374,5.493,4.022,9.5,4.422a11.323,11.323,0,0,0,8.309-2.281c.641-.481-.2.839,1.14-5.7C139.648,168.523,142.4,155.077,145.115,141.586Z" fill="#EEDCB0"></path></g></svg>
