<svg viewBox="0 0 400 400" xmlns="http://www.w3.org/2000/svg"><g transform="matrix(2,0,0,2,0,0)"><path d="M194.194,187.33c-62.734,0-125.277.217-188.616.1-.833,0-.737,1.246.1,1.253,62.83.511,125.9.136,188.653.147C195.307,188.833,195.174,187.33,194.194,187.33Z" fill="#333333"></path><path d="M127.944,77.675c-.913,5.1-1.82,14.827,4.636,16.589a16.64,16.64,0,0,1-.921,3.36c-.243.619,1.024,1.864,2.056-3.161a5.522,5.522,0,0,0,4.657-1.541c.309-.346-.107-.965-.553-.737-1.936.991-3.493,1.63-5.652.686-5.358-2.342-3.685-11.717-3-16.787a13.044,13.044,0,0,1,9.057.228c.25,1.717,1.47,4.428,3.176,5.3,1.309.668.8-1.474,2.446-1.622s1.235,4.982-.2,5.7c-.864.43-.813.632-.737,1.746a49.8,49.8,0,0,1-.515,10.362c-.1.677.954.555,1.164-1.017a48.291,48.291,0,0,0,.25-9.809c1.747-.538,2.6-4.156,2.211-6.286,1.894-.678,2.8-2.948.641-3.9,1.415-.877,2.462-3.685-.737-4.083,2.41-2.026-.14-6.426-3.139-4.613.066-3.036-5-3.685-5.7-1.223-1.474-3.626-6.131-1.393-5.541,1.054-2.55-1.607-6.7,2.4-3.8,4.605C124.392,73.239,125.5,77.329,127.944,77.675Z" fill="#333333"></path><path d="M133.376,89.179c2.431.877,4.413-1.376,4.119-2.52-.189-.736-.845-.435-.951.213-.223,1.372-1.806,1.737-2.947,1.548A.4.4,0,0,0,133.376,89.179Z" fill="#333333"></path><path d="M131.239,77.558a2.4,2.4,0,0,0-2.093,1.053c-.257.387-.162,1.238.523.656a2.945,2.945,0,0,1,1.6-.685C132.16,78.412,131.909,77.639,131.239,77.558Z" fill="#333333"></path><path d="M130.126,82.473c.427.059.943-1.282.213-1.474S129.551,82.393,130.126,82.473Z" fill="#333333"></path><path d="M136.25,79.79a.464.464,0,0,0,.8-.442,2.638,2.638,0,0,0-2.344-1.732.56.56,0,0,0-.162,1.106C135.729,79,135.572,79.142,136.25,79.79Z" fill="#333333"></path><path d="M134.709,82.753c.738.085.84-1.429.17-1.474C134.348,81.243,134.039,82.676,134.709,82.753Z" fill="#333333"></path><path d="M134.039,85.981c.566-.306.674-1.075-.214-.737-1.747.665-2.526.118-2.152-1.091.252-.81-.42-.472-.6.081C130.36,86.363,132.782,86.659,134.039,85.981Z" fill="#333333"></path><path d="M26.153,184.721c2.489,2.456,3.525,1.035,5.158-.663.994-1.033,1.9-2.329,2.845-3.4a.6.6,0,1,0-.785-.919c-.38.325-2.664,3.061-4.351,4.677-.5.48-1.045.087-1.474-.331-4.782-4.667-9.568-9.467-14.245-14.223a7.194,7.194,0,0,1-1.975-2.616C15.9,166.954,21.59,170.2,25.91,171.4c.427.118.773-.552.39-.811a40.01,40.01,0,0,0-13.043-4.746c-2.75-.3-4.889.154-2.41,3.309C12.979,171.863,22.6,181.216,26.153,184.721Z" fill="#333333"></path><path d="M46.345,185.849c1.333.546,18.6.114,21.068.11,4.754-.007,4.231-.533,5.321-6.632.153-.855-1-.988-1.15-.14-1.015,5.635-.508,5.4-4.149,5.409-6.757.014-13.506.118-20.265.052-.987-.01,0-.737.339-1,4.124-3.236,7.285-4.317,11.481-6.713.427-.244.317-1.047-.258-.921-3.353.734-9.977,4.579-12.527,6.934C45.29,183.79,44.959,185.282,46.345,185.849Z" fill="#333333"></path><path d="M79.248,155.753c-2.1-.207-7.892-.87-9.285-.907-2.373,1.85-6.632,4.96-7.575,5.793-1.474,4.089-2.631,11.134-3.3,14.347,2.211,1.047,12.395,2.793,15.026,2.793C74.886,172.754,79.175,156.313,79.248,155.753Z" fill="#333333"></path><path d="M103.375,134.4c-5.7-4.348-17.767-12.811-28.445-12-5.741.433-8.6,5.755-8.983,12.653,1.665-1.179,5.379-2.146,7.141-2.469C78.459,131.592,95.534,133.055,103.375,134.4Z" fill="#333333"></path><path d="M69.9,153.483c4.562.737,8.512.781,9.676,1.209,2.889-2.322,27.266-13.309,54.879-6.559-11.791-7.222-20.48-10.557-26.294-11.791-8.07-1.713-26.654-3.965-34.871-2.778-12.955,1.871-39.742,27.428-46.176,35.284,1.865,2.321,8.2,9.772,8.939,11.164C45.416,172.194,67.576,154.765,69.9,153.483Z" fill="#333333"></path><path d="M104.923,134.6c4.467-2.708,7.5-2.292,11.054-2.211.8.018.8-1.148,0-1.238-3.4-.379-9.077.234-11.658,2.7C103.942,134.211,104.493,134.864,104.923,134.6Z" fill="#333333"></path><path d="M85.335,121.523c1.946-1.032,6.269-5.238,7.222-7.134.326-.648-.586-1.324-1.046-.737-3.179,4.061-3.283,3.978-7.369,7.222C83.813,121.134,83.64,122.421,85.335,121.523Z" fill="#333333"></path><path d="M65.387,126.762c-13.518,1.928-28.062,13.1-27.215,27.915,0,.67.994.545,1.01-.1.369-15.432,12.676-23.517,26.308-26.529C66.3,127.874,66.228,126.642,65.387,126.762Z" fill="#333333"></path><path d="M48.209,179.769a15.61,15.61,0,0,1-3.522-3.935c-.369-.361-2.211-.125.7,2.948S48.718,180.13,48.209,179.769Z" fill="#333333"></path><path d="M149.4,79.171a36.184,36.184,0,0,1,19.388,11.651c13.59,15.681,24.033,55.961,17.731,76.95-2.523,8.4-8,15.209-16.714,17.178a.6.6,0,1,0,.236,1.171c7.539-.95,13.5-7.524,16.434-14.126,8.987-20.223-1.6-62.974-14.872-79.95-5.175-6.619-13.436-13-22.012-13.861C149.028,78.127,148.835,79.043,149.4,79.171Z" fill="#333333"></path><path d="M115.137,147.47c-10.361.074-24.883,2.616-34.142,7.782-.5.279-.325,1.031.184.781,7.1-3.487,20.546-7.085,33.958-7.163,13.161-.077,28.629,4.06,33.817,6.669a.568.568,0,0,0,.5-1.01C140.185,149.658,125.446,147.4,115.137,147.47Z" fill="#333333"></path><path d="M66.676,66.231c.132.921,1.151,1,2.211.685,2.949-.865,4-2.948,3.6-5.932-.422-3.133-1.636-5.159-4.767-5.276-2.366-.089-1.812,1.79-1.673,3.183C66.286,61.329,66.319,63.719,66.676,66.231Zm4.039-5.2c.384,2.351-.214,3.589-2.587,4.215-.044-2.6-.243-5.158-.471-7.767C69.735,57.358,70.391,59.046,70.715,61.028Z" fill="#333333"></path><path d="M77.229,66.629c4.179-.147,4.584-11.215.229-11.489C73.25,54.876,72.808,66.784,77.229,66.629Zm.155-9.764c2.041.211,1.761,7.765-.184,8.054C74.731,65.286,75.52,56.671,77.384,56.865Z" fill="#333333"></path><path d="M40.309,58.759c1.017,0,2.034-.126,3.051-.192.125,2.881.163,5.763.369,8.637.089,1.245,1.877,1.216,1.783-.376-.165-2.778-.265-5.557-.4-8.342.906,0,1.813-.044,2.719,0a.894.894,0,1,0,.2-1.776c-1.931,0-6.219.037-7.951.56A.8.8,0,0,0,40.309,58.759Z" fill="#333333"></path><path d="M53.648,66.857c4.421.083,4.1-11.431-.361-10.855C48.725,56.591,48.975,66.77,53.648,66.857Zm-.236-9.16c1.842-.449,2.262,7.191.206,7.51-2.181.337-2.808-6.869-.177-7.51Z" fill="#333333"></path><path d="M36.9,101.707c.981-.039,1.024-1.784-.037-1.806a38.6,38.6,0,0,0-4.834.133c-1.033.109-.693,1.356-.169,1.474A33.678,33.678,0,0,0,36.9,101.707Z" fill="#333333"></path><path d="M32.785,116.7a.847.847,0,0,0,.177,1.665c1.688-.095,3.361-.308,5.041-.508,1.046-.125.818-1.945-.2-1.828C36.131,116.225,34.488,116.4,32.785,116.7Z" fill="#333333"></path><path d="M31.54,87.543a34.881,34.881,0,0,0,5.387-.184.936.936,0,0,0-.059-1.872c-.855.032-4.807.29-5.571.678A.737.737,0,0,0,31.54,87.543Z" fill="#333333"></path><path d="M85.483,64.971c.286-1.338-1.888-1.708-2.16-.435C83.037,65.873,85.211,66.244,85.483,64.971Z" fill="#333333"></path><path d="M84.4,59.039a1.283,1.283,0,0,0-.163-2.558C82.3,56.532,82.823,59.112,84.4,59.039Z" fill="#333333"></path><path d="M39.742,72.148c11.054.369,34.769.168,45.689-.361,1.172-.056,1.223-1.9,0-1.842-15.433.694-30.84.464-45.689.656a.866.866,0,0,0-.276,1.135C39.538,71.874,39.651,71.986,39.742,72.148Z" fill="#333333"></path><path d="M145.815,98.442c-5.829,4.053-15.313,5.9-16.411-1.223-7.48-.988-20.449,2.226-26.183-.17-.561-.234-.332-.84.25-.656,2.174.687,7.893.266,10.465.221,2.874-2.026,8.4-5.63,12.955-7.266-.538-1.724-.907-8,0-10.877a3.115,3.115,0,0,1-2.13-1.886c-5.055.936-36.129,11.2-37.1,25.586-.647,9.535,13.36,14.37,21.746,17.443a105.741,105.741,0,0,1,4.908-9.845c.282-.434.958-.074.737.375-3.684,6.522-6.006,13.1-8.71,20.892,4.709-2.638,8.843-1.562,12.152-.737,5.814-4.009,22.107-1.3,27.708.376a27.66,27.66,0,0,0-.575-10.236c-.114-.47.65-.6.811-.169.928,2.51,1.547,8.194.862,10.759.781.25,1.563.514,2.329.8,2.051.776,1.522,1.463-.8.634-6.268-2.241-28.018-6.581-31.931,1.157a7.493,7.493,0,0,0-.737,4.37c19.809,6.19,24.732,16.436,40.833,10.191C172.566,142.145,167.267,101.817,145.815,98.442Z" fill="#EEDCB0"></path><path d="M84.6,32.436c5.9-.03,20.59-.288,28.637-.413.17,14.576.328,31.312.31,45.616,0,.965,1.112.965,1.127.1.248-13.442.126-38.925-.154-44.953-.089-1.9-.162-2.279-2.211-2.211-8.474.282-20.633.539-27.782.737C83.9,31.333,83.935,32.439,84.6,32.436Z" fill="#EEDCB0"></path><path d="M104.039,81.81c0,.9,1.141.81,1.127-.081-.171-11.393-.254-26.286-.346-38.542-.017-2.21,0-2.77-1.71-2.689-2.358.111-6.573.11-9.013.14-.633.007-.508.972.082,1.068a62.427,62.427,0,0,0,9.425.059C103.479,53.49,103.965,66.584,104.039,81.81Z" fill="#EEDCB0"></path><path d="M35.556,154.087c-7.973.108-16.153-.258-24.127,0-.9-39.116-1.488-78.652-1.533-121.01q13.4,0,26.8-.089c.8-.006.928-1.075.169-1.083-8.651-.086-17.988-.342-26.757-.14-1.474.034-1.6.339-1.6,2.152,0,39.9,1.035,80.465,1.473,120.362.01.891.516,1.077.87,1.083,8.246.145,16.507-.068,24.753-.184C36.492,155.165,36.477,154.075,35.556,154.087Z" fill="#EEDCB0"></path><path d="M38.172,143.711c-2.669-.044-14.643-.294-17.539.185-.457-33.8.207-67.332.347-101.085,0-.287,5.247-.125,5.762-.1,1.644.072,1.318-.926,1.069-1.076-.814-.487-4.208-.317-6.433-.206-1.474.073-1.756.332-1.813,1.923-1.193,33.352-.457,66.788-.45,100.156,0,1.577.155,1.78,1.7,1.724,5.99-.213,11.414-.3,17.413-.324C39.219,144.9,39.13,143.727,38.172,143.711Z" fill="#EEDCB0"></path><path d="M69.713,28.169c6.123-4.466,2.4-17.1-8.232-17.1S47.236,24.4,54.215,28.382c-14.2,1.047-25.756,11.968-25.756,19.4,13.125.862,53.929-.28,66.044-1.887C90.17,37.248,78.7,30.262,69.713,28.169ZM63.3,26.444c-8.275,1.2-9.373-9.33-1.849-9.963C67.155,16,69.381,25.561,63.3,26.444Z" fill="#EEDCB0"></path></g></svg>
