
<?xml version="1.0" encoding="UTF-8"?>
<svg id="Calque_1" data-name="Calque 1" xmlns="http://www.w3.org/2000/svg" version="1.1" viewBox="0 0 402 56.98" class="w-72 text-gray-800">
	<polygon points="15.17 1.27 .12 1.27 .12 55.82 49.21 55.82 49.21 42.43 15.17 42.43 15.17 1.27" />
	<polygon points="71.75 34 102.31 34 102.31 23.09 71.75 23.09 70.18 13.49 104.35 13.49 104.35 1.27 54.01 1.27 58.16 28.54 54.01 55.82 104.71 55.82 104.71 43.6 70.18 43.6 71.75 34"/>
	<path d="M144.72,38.22h14.95c-.16.22-.33.44-.51.66-1.63,1.94-3.79,3.41-6.51,4.4-2.72.99-5.84,1.49-9.38,1.49s-6.8-.61-9.49-1.82c-2.69-1.21-4.76-3.03-6.22-5.46-1.45-2.42-2.18-5.41-2.18-8.95s.68-6.41,2.04-8.76c1.36-2.35,3.27-4.12,5.75-5.31,2.47-1.19,5.41-1.78,8.8-1.78,2.81,0,5.32.35,7.53,1.05,2.21.7,4.05,1.72,5.53,3.05,1.48,1.33,2.46,2.92,2.95,4.76h15.2c-.78-4.22-2.5-7.93-5.17-11.13s-6.18-5.72-10.55-7.56c-4.36-1.84-9.55-2.76-15.57-2.76-4.51,0-8.67.62-12.47,1.85-3.81,1.24-7.15,3.07-10.04,5.49-2.89,2.43-5.13,5.41-6.73,8.95-1.6,3.54-2.4,7.59-2.4,12.15s.79,8.61,2.36,12.15c1.58,3.54,3.78,6.52,6.62,8.95,2.84,2.43,6.12,4.25,9.86,5.49,3.73,1.24,7.73,1.86,12,1.86s8.38-.66,11.75-1.96c3.37-1.31,6.18-3.13,8.44-5.46.35-.36.66-.75.99-1.12l.72,7.38h10.69v-28.22h-28.95v10.62Z"/>
	<path d="M221.96,31.45c0,2.47-.46,4.62-1.38,6.44-.92,1.82-2.3,3.21-4.15,4.18-1.84.97-4.15,1.45-6.91,1.45s-5.01-.48-6.87-1.45c-1.87-.97-3.27-2.36-4.22-4.18s-1.42-3.96-1.42-6.44V1.27h-15.06v30.91c0,5,1.15,9.35,3.46,13.06,2.3,3.71,5.53,6.59,9.67,8.66s8.96,3.09,14.44,3.09,10.35-1.03,14.47-3.09c4.12-2.06,7.33-4.95,9.64-8.66,2.3-3.71,3.46-8.06,3.46-13.06V1.27h-15.13v30.19Z"/>
	<rect x="246.55" y="1.27" width="15.06" height="54.55"/>
	<path d="M291.57,1.27l-24.8,54.55h16.08l4.54-10.47h28.25l4.52,10.47h16.08L311.43,1.27h-19.86ZM292.65,33.2l8.88-20.49,8.85,20.49h-17.73Z"/>
	<polygon points="387.29 1.27 387.29 38.68 360.89 1.27 341.39 1.27 341.39 55.82 356.01 55.82 356.01 17.47 382.93 55.82 401.91 55.82 401.91 1.27 387.29 1.27"/>
</svg>