<?xml version="1.0" encoding="utf-8"?>
<!-- Generator: Adobe Illustrator 26.0.3, SVG Export Plug-In . SVG Version: 6.00 Build 0)  -->
<svg version="1.1" id="Calque_1" xmlns="http://www.w3.org/2000/svg" xmlns:xlink="http://www.w3.org/1999/xlink" x="0px" y="0px"
	 viewBox="0 0 619.3 87.8" style="enable-background:new 0 0 619.3 87.8;" xml:space="preserve" class="w-32">
<g>
	<path style="fill:#ffffff;" d="M33.5,87.8c-23.4,0-28.3-15.6-24.9-33.2l3.2-16.8c1-5.1-0.8-7.4-4.7-7.4c-2.4,0-4.3,0.7-5.6,1.9
		C0.5,29,0,26.1,0,23.4C0,11.3,9.2,1.1,27,1.1c17.3,0,25.8,9.8,25.8,24.1c0,7-1.6,15.5-3.9,26.4c9.2,1.4,18.5,0.1,26.5-4.4
		c2.9,5.5,4.2,11.2,4.2,17.3c0,17.4-11.8,23.4-32.5,23.4H33.5z"/>
	<path style="fill:#ffffff;" d="M115.5,87.8c-24.3,0-33.4-7.2-33.4-23.3c0-9.8,3.7-18.3,9.7-34.1c-3.7,0-7.9,0.7-11.5,2.1
		c-1.2-3.3-1.9-7.4-1.9-10.1c0-15.2,10.5-21,29.6-21c13,0,21.2,1.4,31.9,1.4c8.4,0,13.2-1.3,16.1-2.9c2.6,4.3,3.9,10.5,3.9,14.7
		c0,10.6-5.5,18.5-35.2,16l-0.2,6.8c7.8,0.4,15.8-0.5,22.8-1.9c1.9,3,2.9,6,2.7,9.3c-0.5,10.6-12.4,10.6-26.1,8l-0.4,8.2
		c19.7,0,28-1,34.1-3.7c2.1,4.1,3,8.7,3,12.5c-0.1,12.6-6.3,17.9-31.3,17.9H115.5z"/>
	<path style="fill:#ffffff;" d="M160.7,46.2c0-27.3,18.6-45.6,47-45.6c13.1,0,25.9,2.7,34.4,0.7c3,5.6,3.7,12.6,3.7,16.2
		c0,9.3-5.2,16.1-15.2,16.1c-8.6,0-16.3-3.9-24.5-10.3c-3.2,3.8-4.7,11.3-4.7,20.4c0,12.1,2.9,16.7,5.5,16.7c2.3,0,3.8-2.1,4.1-8.5
		l0.4-11.3c3.6-1.7,11-3.1,17.5-3.1c13.1,0,19.2,2.7,19.2,11.5c0,6.1-1.4,16.9-1.4,23c0,4.7,0.4,8.4,1.3,12.9
		c-3.1,1.8-8.2,2.9-14.6,2.9c-11.7,0-19.6-2.7-16.2-18.7h-2.4c-2.5,17.7-14.6,19-22.2,19C174.2,88.1,160.7,73.5,160.7,46.2z"/>
	<path style="fill:#ffffff;" d="M258.7,54.7l3.2-16.8c1-5.1-0.8-7.4-4.7-7.4c-2.4,0-4.3,0.7-5.6,1.9c-1.1-3.3-1.6-6.2-1.6-8.9
		c0-12.1,9.2-22.3,27-22.3c17.3,0,25.1,9.8,25.1,28.9c0,10.9-2.1,20.2-2.1,23.9c0,1.8,1.1,2.7,2.4,2.7c4.9,0,6.4-15.2,6.4-27.8
		c0-12.5-0.6-18.7-1.6-24.8c6.3-2.4,13.5-2.9,18.6-2.9c22.2,0,27.2,15.6,23.7,33.2l-3.1,15.6c-1.1,5.1,0.7,7.4,4.5,7.4
		c2.4,0,4.3-0.7,5.6-1.9c1.1,3.3,1.6,6.2,1.6,8.9c0,13.2-9.2,23.5-27,23.5c-12.8,0-21.2-6.8-19.4-20.4h-2.5
		c-5.1,12.4-14.8,20.4-26.8,20.4C260.2,87.8,255.3,72.2,258.7,54.7z"/>
	<path style="fill:#ffffff;" d="M390.3,87.8c-19.8,0-28.8-12.9-25.8-33.2l2.5-16.8c0.7-5.1-0.8-7.4-4.7-7.4c-2.4,0-4.3,0.7-5.6,1.9
		c-1.1-3.3-1.6-6.2-1.6-8.9c0-12.1,9.2-22.3,27-22.3c22,0,28.9,13.1,25.9,33.2l-2.5,16.8c-0.7,5.1,0.8,7.4,4.7,7.4
		c2.4,0,4.3-0.7,5.6-1.9c1.1,3.3,1.6,6.2,1.6,8.9c0,12.1-9.2,22.3-27,22.3H390.3z"/>
	<path style="fill:#ffffff;" d="M420.7,68.3c0-7.3,3.2-15,10.9-19.1c-1.1-6.2-1.6-10.7-1.6-15C430,11.5,443.1,1,459.5,1
		c7.6,0,14.8,3.5,17.8,7.9c5.6-5.5,12.8-7.4,19.6-7.4c8.4,0,16.1,2.9,20.9,6.9c-2.4,7.5-5.5,28.9-5.5,40.1c0,7,1.6,10,6,10
		c2.4,0,4.3-0.7,5.6-1.9c1.1,3.3,1.6,6.2,1.6,8.9c0,13.2-9.2,22.3-25.7,22.3c-16.1,0-23.7-7.9-26.5-19.7h-7
		c-1.8,15.3-11.3,19.7-23.3,19.7C428.3,87.8,420.7,78.5,420.7,68.3z M472.3,47.4c0.6-7.4,1.6-14.2,2.3-21.8c-0.6-0.1-1-0.1-1.3-0.1
		c-4.8,0-7.6,6-7.6,15.6c0,1.2,0.1,3.6,0.2,6.3H472.3z"/>
	<path style="fill:#ffffff;" d="M531.3,54.7l3.2-16.8c1-5.1-0.8-7.4-4.7-7.4c-2.4,0-4.3,0.7-5.6,1.9c-1.1-3.3-1.6-6.2-1.6-8.9
		c0-12.1,9.2-22.3,27-22.3c8.6,0,15.3,3,18.9,8.8l11.7,20c0.2-9.2,0-17.8-1.3-26c6.3-2.4,13.5-2.9,18.6-2.9
		c19.8,0,23.1,15.3,21.4,33.2l-4.2,40.7c-1,8.7-5.8,12.9-15.6,12.9c-9.7,0-14.6-4.7-18.7-11.3l-9.8-17.1c-0.5,9.1-0.5,17.4,0.7,25.5
		c-6.3,2.4-13.5,2.9-18.6,2.9C532.9,87.8,528,72.2,531.3,54.7z"/>
</g>
</svg>
