<?xml version="1.0" standalone="no"?>
<!DOCTYPE svg PUBLIC "-//W3C//DTD SVG 20010904//EN"
 "http://www.w3.org/TR/2001/REC-SVG-20010904/DTD/svg10.dtd">
<svg version="1.0" xmlns="http://www.w3.org/2000/svg"
 width="645.000000pt" height="645.000000pt" viewBox="0 0 645.000000 645.000000"
 preserveAspectRatio="xMidYMid meet">
<metadata>
Created by potrace 1.14, written by Peter Selinger 2001-2017
</metadata>
<g transform="translate(0.000000,645.000000) scale(0.100000,-0.100000)"
fill="#000000" stroke="none">
<path d="M3108 4650 c-427 -50 -786 -367 -889 -785 -26 -106 -35 -288 -20
-396 67 -453 417 -806 874 -879 105 -17 308 -8 409 19 292 76 532 268 668 532
144 281 155 599 30 890 -51 121 -120 220 -219 319 -176 175 -378 272 -624 299
-106 12 -130 12 -229 1z m266 -466 c199 -51 369 -220 421 -420 19 -73 19 -222
0 -294 -64 -240 -281 -419 -530 -436 -330 -23 -625 252 -625 581 0 258 189
501 441 569 73 20 217 20 293 0z"/>
<path d="M2188 2626 c-74 -26 -123 -75 -147 -145 -32 -97 2 -187 108 -281 335
-300 780 -452 1209 -412 292 28 533 113 767 270 105 71 228 177 261 226 74
109 41 256 -73 323 -38 22 -59 27 -112 27 -81 0 -110 -14 -201 -99 -340 -311
-841 -387 -1256 -191 -117 56 -177 95 -293 195 -116 99 -175 118 -263 87z"/>
</g>
</svg>
