<?xml version="1.0" standalone="no"?>
<!DOCTYPE svg PUBLIC "-//W3C//DTD SVG 20010904//EN"
 "http://www.w3.org/TR/2001/REC-SVG-20010904/DTD/svg10.dtd">
<svg version="1.0" xmlns="http://www.w3.org/2000/svg"
 width="700.000000pt" height="700.000000pt" viewBox="0 0 700.000000 700.000000"
 preserveAspectRatio="xMidYMid meet">
<metadata>
Created by potrace 1.14, written by Peter Selinger 2001-2017
</metadata>
<g transform="translate(0.000000,700.000000) scale(0.100000,-0.100000)"
fill="#000000" stroke="none">
<path d="M340 6989 c-160 -31 -299 -173 -330 -339 -14 -73 -14 -6227 0 -6301
32 -169 170 -307 340 -339 73 -14 6227 -14 6300 0 161 31 294 154 336 314 12
43 14 560 14 3176 0 2070 -4 3140 -11 3169 -36 157 -168 286 -327 320 -65 14
-6251 14 -6322 0z m2695 -1149 c656 -73 1058 -437 1150 -1040 19 -124 19 -400
0 -588 -19 -185 -81 -557 -144 -859 -41 -202 -45 -233 -32 -237 9 -3 79 -10
156 -17 411 -35 843 44 1185 216 38 19 72 35 75 35 4 0 27 -44 52 -97 183
-393 231 -919 117 -1285 -98 -313 -302 -526 -633 -658 -192 -77 -439 -128
-726 -150 -181 -13 -1134 -13 -1290 1 -680 58 -1077 400 -1171 1009 -17 112
-20 394 -4 530 13 117 27 196 135 765 105 552 108 619 38 713 -45 60 -93 77
-218 77 -124 0 -166 -10 -247 -59 l-56 -34 -22 82 c-41 151 -53 237 -54 396 0
115 4 177 18 240 61 282 202 505 427 675 202 152 467 250 769 284 108 12 370
13 475 1z"/>
</g>
</svg>
