<?xml version="1.0" encoding="utf-8"?>
<svg version="1.1" id="Calque_1" xmlns="http://www.w3.org/2000/svg" x="0px" y="0px"
	 viewBox="0 0 1335.9 215.3" xml:space="preserve" class="h-10">
<g>
	<path style="fill:#242450;" d="M290.5,147.3c-6.3-3.6-11.1-8.8-14.5-15.5c-3.4-6.7-5.1-14.6-5.1-23.7c0-9,1.7-16.9,5.1-23.6
		c3.4-6.7,8.2-11.9,14.5-15.5c6.3-3.6,13.6-5.4,22-5.4c5.4,0,10.5,0.8,15.3,2.4c4.8,1.6,9,3.9,12.7,7c1.1,0.8,1.8,1.7,2.2,2.6
		c0.4,0.9,0.6,2,0.6,3.3c0,1.8-0.5,3.3-1.5,4.6c-1,1.2-2.2,1.8-3.6,1.8c-1.6,0-3.3-0.6-5.1-1.7c-3.5-2.6-6.8-4.5-9.9-5.5
		c-3-1-6.4-1.5-10.1-1.5c-8.5,0-15,2.7-19.4,8c-4.4,5.3-6.6,13.2-6.6,23.5c0,10.4,2.2,18.3,6.6,23.7c4.4,5.3,10.9,8,19.4,8
		c3.5,0,6.8-0.5,9.8-1.6c3-1.1,6.4-2.9,10.2-5.4c0.8-0.5,1.6-0.9,2.5-1.2c0.8-0.3,1.7-0.5,2.6-0.5c1.4,0,2.6,0.6,3.6,1.8
		c1,1.2,1.5,2.8,1.5,4.6c0,1.2-0.2,2.3-0.6,3.3c-0.4,0.9-1.2,1.8-2.2,2.6c-3.7,3-7.9,5.4-12.7,7c-4.8,1.6-9.9,2.4-15.3,2.4
		C304.1,152.7,296.8,150.9,290.5,147.3z"/>
	<path style="fill:#242450;" d="M362.2,148.7c-4.6-2.5-8.2-6.2-10.8-11c-2.5-4.8-3.8-10.3-3.8-16.6c0-6.3,1.3-11.9,3.8-16.6
		c2.5-4.7,6.1-8.4,10.8-10.9c4.6-2.5,10-3.8,16.2-3.8c6.2,0,11.6,1.3,16.2,3.8c4.6,2.5,8.2,6.2,10.7,10.9c2.5,4.7,3.8,10.3,3.8,16.6
		c0,6.3-1.3,11.9-3.8,16.6c-2.5,4.8-6.1,8.4-10.7,11c-4.6,2.5-10,3.8-16.2,3.8C372.3,152.6,366.9,151.3,362.2,148.7z M389.8,135.7
		c2.6-3.3,3.9-8.1,3.9-14.5c0-6.3-1.3-11.2-3.9-14.5c-2.6-3.3-6.4-5-11.3-5c-4.9,0-8.7,1.7-11.4,5c-2.7,3.3-4,8.2-4,14.5
		c0,6.4,1.3,11.3,3.9,14.5c2.6,3.3,6.4,4.9,11.3,4.9C383.3,140.6,387.1,139,389.8,135.7z"/>
	<path style="fill:#242450;" d="M456.8,91.4c1.2,1.1,1.8,2.7,1.8,4.8c0,2.2-0.5,3.9-1.6,4.9c-1.1,1.1-3,1.8-5.8,2.1l-3.7,0.4
		c-4.8,0.5-8.4,2.1-10.7,4.9c-2.3,2.8-3.4,6.3-3.4,10.5v25.9c0,2.4-0.7,4.2-2.2,5.5c-1.5,1.3-3.3,1.9-5.5,1.9c-2.2,0-4-0.6-5.5-1.9
		c-1.4-1.3-2.2-3.1-2.2-5.5V97.2c0-2.3,0.7-4.1,2.2-5.3c1.4-1.2,3.2-1.8,5.4-1.8c2.1,0,3.9,0.6,5.2,1.8c1.3,1.2,2,2.9,2,5.1v4.9
		c1.6-3.6,3.9-6.4,7-8.4s6.5-3.1,10.3-3.3l1.7-0.1C453.9,89.9,455.6,90.4,456.8,91.4z"/>
	<path style="fill:#242450;" d="M462.6,76.8c-1.6-1.5-2.5-3.5-2.5-6s0.8-4.4,2.5-5.9c1.6-1.5,3.9-2.2,6.7-2.2c2.7,0,4.9,0.7,6.6,2.2
		c1.7,1.5,2.5,3.5,2.5,5.9s-0.8,4.5-2.5,6c-1.6,1.5-3.9,2.3-6.7,2.3C466.5,79.1,464.2,78.3,462.6,76.8z M463.8,150.4
		c-1.4-1.3-2.2-3.1-2.2-5.5V97.3c0-2.4,0.7-4.2,2.2-5.4c1.4-1.2,3.3-1.8,5.5-1.8c2.2,0,4.1,0.6,5.5,1.8c1.5,1.2,2.2,3,2.2,5.4v47.6
		c0,2.4-0.7,4.2-2.2,5.5c-1.5,1.3-3.3,1.9-5.5,1.9C467,152.3,465.2,151.7,463.8,150.4z"/>
	<path style="fill:#242450;" d="M540.4,96c3.5,4.1,5.3,10.3,5.3,18.6v30.3c0,2.3-0.7,4.1-2,5.4c-1.4,1.3-3.2,2-5.6,2
		c-2.4,0-4.3-0.7-5.7-2c-1.4-1.3-2.1-3.1-2.1-5.4v-29.5c0-4.7-0.9-8.1-2.6-10.2c-1.8-2.1-4.5-3.2-8.3-3.2c-4.4,0-8,1.4-10.7,4.2
		c-2.7,2.8-4,6.5-4,11.2v27.5c0,2.3-0.7,4.1-2.1,5.4c-1.4,1.3-3.3,2-5.7,2c-2.4,0-4.3-0.7-5.6-2c-1.4-1.3-2-3.1-2-5.4V97.2
		c0-2.1,0.7-3.9,2.1-5.2c1.4-1.3,3.3-2,5.7-2c2.1,0,3.9,0.6,5.2,1.9c1.4,1.3,2,2.9,2,5v3.3c2.1-3.4,4.8-6,8.3-7.8
		c3.5-1.8,7.4-2.7,11.7-2.7C531.5,89.8,536.8,91.9,540.4,96z"/>
	<path style="fill:#242450;" d="M608.8,96c3.5,4.1,5.3,10.3,5.3,18.6v30.3c0,2.3-0.7,4.1-2,5.4c-1.4,1.3-3.2,2-5.6,2
		c-2.4,0-4.3-0.7-5.7-2c-1.4-1.3-2.1-3.1-2.1-5.4v-29.5c0-4.7-0.9-8.1-2.6-10.2c-1.8-2.1-4.5-3.2-8.3-3.2c-4.4,0-8,1.4-10.7,4.2
		c-2.7,2.8-4,6.5-4,11.2v27.5c0,2.3-0.7,4.1-2.1,5.4c-1.4,1.3-3.3,2-5.7,2c-2.4,0-4.3-0.7-5.6-2c-1.4-1.3-2-3.1-2-5.4V97.2
		c0-2.1,0.7-3.9,2.1-5.2c1.4-1.3,3.3-2,5.7-2c2.1,0,3.9,0.6,5.2,1.9c1.4,1.3,2,2.9,2,5v3.3c2.1-3.4,4.8-6,8.3-7.8
		c3.5-1.8,7.4-2.7,11.7-2.7C599.9,89.8,605.2,91.9,608.8,96z"/>
	<path style="fill:#242450;" d="M677.1,136.7c0.9,1.1,1.3,2.5,1.3,4.3c0,2.5-1.5,4.7-4.6,6.4c-2.8,1.6-6,2.8-9.5,3.8
		c-3.5,0.9-6.9,1.4-10.1,1.4c-9.7,0-17.4-2.8-23-8.4c-5.7-5.6-8.5-13.2-8.5-22.9c0-6.2,1.2-11.6,3.7-16.4c2.5-4.8,5.9-8.5,10.4-11.1
		c4.5-2.6,9.6-3.9,15.2-3.9c5.4,0,10.1,1.2,14.2,3.6c4,2.4,7.1,5.8,9.4,10.1c2.2,4.4,3.3,9.5,3.3,15.4c0,3.5-1.6,5.3-4.7,5.3h-36.4
		c0.5,5.7,2.1,9.8,4.8,12.5c2.7,2.7,6.7,4,11.8,4c2.6,0,4.9-0.3,7-1c2-0.7,4.3-1.6,6.8-2.7c2.5-1.3,4.3-2,5.4-2
		C675.1,135.1,676.3,135.6,677.1,136.7z M642.4,104.6c-2.5,2.6-4,6.4-4.5,11.3h27.9c-0.2-5-1.4-8.8-3.7-11.4
		c-2.3-2.6-5.5-3.9-9.6-3.9C648.2,100.7,644.9,102,642.4,104.6z"/>
	<path style="fill:#242450;" d="M731,150.2c-5.6-1.7-10.2-4-13.7-6.8c-1.9-1.4-2.8-3.4-2.8-5.9c0-1.7,0.5-3.2,1.5-4.5
		c1-1.3,2.2-1.9,3.6-1.9c1.5,0,3.2,0.6,5.1,1.7c3.5,2.5,7.2,4.4,11.1,5.5c3.9,1.2,8.1,1.7,12.8,1.7c6,0,10.6-1,13.8-3.1
		c3.2-2.1,4.8-5.2,4.8-9.2c0-3.1-1.5-5.5-4.5-7.2c-3-1.7-8-3.3-15-4.9c-7.2-1.6-13.1-3.4-17.6-5.4c-4.5-2.1-7.9-4.7-10.2-7.9
		c-2.3-3.2-3.5-7.3-3.5-12.2c0-5.1,1.4-9.7,4.3-13.7c2.9-4,6.9-7.2,12-9.4c5.1-2.3,10.9-3.4,17.3-3.4c11.8,0,21.3,3.1,28.7,9.4
		c1.1,0.9,1.8,1.8,2.3,2.6c0.5,0.9,0.7,2,0.7,3.3c0,1.7-0.5,3.2-1.5,4.5c-1,1.3-2.2,1.9-3.6,1.9c-0.8,0-1.6-0.1-2.3-0.4
		c-0.7-0.2-1.6-0.7-2.8-1.4c-3.4-2.5-6.6-4.3-9.8-5.5c-3.2-1.2-7-1.8-11.6-1.8c-5.6,0-10,1.1-13.2,3.4c-3.2,2.3-4.9,5.4-4.9,9.4
		c0,3.4,1.4,6,4.3,7.8c2.9,1.8,7.8,3.5,14.7,5.1c7.3,1.6,13.2,3.5,17.8,5.5c4.6,2,8.1,4.6,10.5,7.7c2.4,3.1,3.6,7,3.6,11.7
		c0,5.1-1.4,9.6-4.3,13.5c-2.8,3.9-6.8,6.9-12,9.1c-5.1,2.2-11,3.3-17.7,3.3C742.6,152.7,736.6,151.8,731,150.2z"/>
	<path style="fill:#242450;" d="M795.8,149.6c-1.4-1.3-2-3.2-2-5.5V72.2c0-2.4,0.7-4.2,2-5.5c1.4-1.3,3.2-2,5.6-2h44.5
		c2.4,0,4.2,0.5,5.5,1.6c1.3,1.1,2,2.6,2,4.6c0,2.1-0.7,3.6-2,4.7c-1.3,1.1-3.2,1.7-5.5,1.7h-36.6v23.9h34.1c2.4,0,4.2,0.5,5.5,1.6
		c1.3,1.1,2,2.6,2,4.7c0,2-0.7,3.5-2,4.6c-1.3,1.1-3.2,1.6-5.5,1.6h-34.1V139h36.6c2.4,0,4.2,0.6,5.5,1.7c1.3,1.1,2,2.7,2,4.7
		c0,2-0.7,3.5-2,4.6c-1.3,1.1-3.2,1.6-5.5,1.6h-44.5C799,151.6,797.2,150.9,795.8,149.6z"/>
	<path style="fill:#242450;" d="M934,66.2c1.4,1.4,2,3.3,2,5.7v72.3c0,2.4-0.7,4.3-2.1,5.8c-1.4,1.5-3.2,2.2-5.4,2.2
		c-2.6,0-4.6-0.9-6-2.8l-45-58.5v53.4c0,2.4-0.7,4.3-2,5.8c-1.3,1.5-3.1,2.2-5.4,2.2c-2.3,0-4.1-0.7-5.4-2.2c-1.3-1.5-2-3.4-2-5.8
		V72c0-2.4,0.7-4.3,2.1-5.7c1.4-1.4,3.2-2.2,5.5-2.2c2.5,0,4.5,0.9,5.9,2.8l44.9,58.3V72c0-2.4,0.7-4.3,2-5.7
		c1.4-1.4,3.1-2.2,5.4-2.2C930.8,64.1,932.6,64.8,934,66.2z"/>
	<path style="fill:#242450;" d="M953.1,149.6c-1.4-1.3-2-3.2-2-5.5V72.2c0-2.4,0.7-4.2,2-5.5c1.4-1.3,3.2-2,5.6-2h44.5
		c2.4,0,4.2,0.5,5.5,1.6c1.3,1.1,2,2.6,2,4.6c0,2.1-0.7,3.6-2,4.7c-1.3,1.1-3.2,1.7-5.5,1.7h-36.6v23.9h34.1c2.4,0,4.2,0.5,5.5,1.6
		c1.3,1.1,2,2.6,2,4.7c0,2-0.7,3.5-2,4.6c-1.3,1.1-3.2,1.6-5.5,1.6h-34.1V139h36.6c2.4,0,4.2,0.6,5.5,1.7c1.3,1.1,2,2.7,2,4.7
		c0,2-0.7,3.5-2,4.6c-1.3,1.1-3.2,1.6-5.5,1.6h-44.5C956.3,151.6,954.4,150.9,953.1,149.6z"/>
	<path style="fill:#242450;" d="M1036.5,147.3c-6.3-3.6-11.1-8.8-14.5-15.5c-3.4-6.7-5.1-14.6-5.1-23.7c0-9,1.7-16.9,5.1-23.6
		c3.4-6.7,8.2-11.9,14.5-15.5c6.3-3.6,13.6-5.4,22-5.4c5.4,0,10.5,0.8,15.3,2.4c4.8,1.6,9,3.9,12.7,7c1.1,0.8,1.8,1.7,2.2,2.6
		c0.4,0.9,0.6,2,0.6,3.3c0,1.8-0.5,3.3-1.5,4.6c-1,1.2-2.2,1.8-3.6,1.8c-1.6,0-3.3-0.6-5.1-1.7c-3.5-2.6-6.8-4.5-9.9-5.5
		c-3-1-6.4-1.5-10.1-1.5c-8.5,0-15,2.7-19.4,8c-4.4,5.3-6.6,13.2-6.6,23.5c0,10.4,2.2,18.3,6.6,23.7c4.4,5.3,10.9,8,19.4,8
		c3.5,0,6.8-0.5,9.8-1.6c3-1.1,6.4-2.9,10.2-5.4c0.8-0.5,1.6-0.9,2.5-1.2c0.8-0.3,1.7-0.5,2.6-0.5c1.4,0,2.6,0.6,3.6,1.8
		c1,1.2,1.5,2.8,1.5,4.6c0,1.2-0.2,2.3-0.6,3.3c-0.4,0.9-1.2,1.8-2.2,2.6c-3.7,3-7.9,5.4-12.7,7c-4.8,1.6-9.9,2.4-15.3,2.4
		C1050.1,152.7,1042.8,150.9,1036.5,147.3z"/>
	<path style="fill:#242450;" d="M1173.1,66.2c1.4,1.4,2.1,3.3,2.1,5.7v72.3c0,2.4-0.7,4.3-2.2,5.8c-1.4,1.5-3.3,2.2-5.6,2.2
		c-2.4,0-4.3-0.7-5.7-2.2c-1.4-1.5-2.1-3.4-2.1-5.8v-30.4h-44.5v30.4c0,2.4-0.7,4.3-2.2,5.8c-1.4,1.5-3.3,2.2-5.7,2.2
		c-2.3,0-4.2-0.7-5.6-2.2c-1.4-1.5-2.2-3.4-2.2-5.8V72c0-2.4,0.7-4.3,2.1-5.7c1.4-1.4,3.3-2.2,5.7-2.2c2.4,0,4.3,0.7,5.7,2.2
		c1.4,1.4,2.2,3.3,2.2,5.7V101h44.5V72c0-2.4,0.7-4.3,2.1-5.7c1.4-1.4,3.3-2.2,5.7-2.2C1169.8,64.1,1171.7,64.8,1173.1,66.2z"/>
	<path style="fill:#242450;" d="M1269.7,145.3c0,1.9-0.8,3.5-2.3,4.8c-1.5,1.3-3.3,2-5.2,2c-1.3,0-2.5-0.4-3.7-1
		c-1.2-0.7-2.1-1.8-2.7-3.3l-7.4-16.5H1205l-7.4,16.5c-0.7,1.5-1.6,2.6-2.7,3.3c-1.2,0.7-2.4,1-3.8,1c-1.9,0-3.6-0.7-5.2-2
		c-1.6-1.3-2.3-2.9-2.3-4.8c0-1.1,0.2-2.1,0.7-3.2l34-73.1c0.7-1.6,1.9-2.9,3.4-3.8c1.5-0.9,3.1-1.3,4.9-1.3s3.3,0.4,4.9,1.3
		c1.5,0.9,2.7,2.1,3.4,3.8l34.1,73.1C1269.5,143.2,1269.7,144.2,1269.7,145.3z M1210.5,118.9h32.5l-16.3-36.6L1210.5,118.9z"/>
	<path style="fill:#242450;" d="M1280,149.6c-1.3-1.3-2-3.1-2-5.4V72c0-2.4,0.7-4.3,2.2-5.7c1.4-1.4,3.3-2.2,5.7-2.2
		c2.5,0,4.4,0.7,5.9,2.2c1.4,1.4,2.2,3.3,2.2,5.7v66.6h34.6c4.9,0,7.4,2.2,7.4,6.5c0,4.4-2.5,6.5-7.4,6.5h-43
		C1283.1,151.6,1281.3,150.9,1280,149.6z"/>
</g>
<g>
	<circle style="fill:#fff027;" cx="107.6" cy="107.7" r="107.6"/>
	<g>
		<path style="fill:none;stroke:#242450;stroke-width:15;stroke-linecap:round;stroke-linejoin:round;stroke-miterlimit:10;" d="
			M75.2,134.6c17.9,17.9,46.9,17.9,64.8,0"/>

			<circle style="fill:none;stroke:#242450;stroke-width:15;stroke-linecap:round;stroke-linejoin:round;stroke-miterlimit:10;" cx="107.6" cy="94.4" r="27.1"/>
	</g>
</g>
</svg>
